<?xml version="1.0" encoding="UTF-8" standalone="no"?>
<!-- Created with Inkscape (http://www.inkscape.org/) -->

<svg
   xmlns:dc="http://purl.org/dc/elements/1.1/"
   xmlns:cc="http://creativecommons.org/ns#"
   xmlns:rdf="http://www.w3.org/1999/02/22-rdf-syntax-ns#"
   xmlns:svg="http://www.w3.org/2000/svg"
   xmlns="http://www.w3.org/2000/svg"
   xmlns:sodipodi="http://sodipodi.sourceforge.net/DTD/sodipodi-0.dtd"
   xmlns:inkscape="http://www.inkscape.org/namespaces/inkscape"
   id="svg2"
   sodipodi:docname="Key_used.svg"
   viewBox="0 0 800.00006 500.00001"
   version="1.1"
   inkscape:version="0.91 r13725"
   width="800"
   height="500">
  <defs
     id="defs9" />
  <sodipodi:namedview
     id="base"
     bordercolor="#666666"
     inkscape:pageshadow="2"
     inkscape:window-y="0"
     pagecolor="#ffffff"
     inkscape:window-height="981"
     inkscape:window-maximized="1"
     inkscape:zoom="1.49375"
     inkscape:window-x="1680"
     showgrid="false"
     borderopacity="1.0"
     inkscape:current-layer="g3613"
     inkscape:cx="293.05209"
     inkscape:cy="250"
     inkscape:window-width="1680"
     inkscape:pageopacity="0.0"
     inkscape:document-units="px" />
  <g
     id="layer1"
     inkscape:label="Camada 1"
     inkscape:groupmode="layer"
     transform="translate(-470.89,-98.289945)">
    <g
       id="g3613"
       transform="matrix(0,1,1,0,17.422307,85.644298)">
      <path
         id="path2832"
         style="fill:#646464;fill-opacity:1;image-rendering:auto"
         d="m 254.80502,455.67805 c -12.7787,0.30745 -33.0891,3.9182 -40.90625,11.1716 -36.62065,33.98065 -100.474,61.1215 -64.284,120.8295 17.91845,29.5592 50.4328,43.63535 73.733,68.5795 1.4729,3.51918 2.99563,7.1368 4.46875,10.65625 0.0765,103.3615 0.0957,206.701 0.1716,310.0625 -1.65935,9.8747 4.77686,23.4377 -6.3591,29.0466 l 0.1716,213.2955 c -0.33605,10.3334 -1.77249,21.1618 8.7659,26.9841 11.49225,5.1261 26.587,4.9253 37.6409,-1.375 10.73435,-5.4506 4.54432,-18.4157 6.0159,-28.0159 1.77474,-8.3276 -5.7838,-26.0321 8.7659,-21.6563 8.7692,-1.5712 26.15415,5.5572 21.65625,-9.2812 -4.26294,-14.2819 13.6378,-6.4213 21.65625,-8.4216 14.4738,-4.6804 11.85085,7.9183 12.03125,17.5312 7.5537,-2.6119 26.0942,5.8383 24.9216,-5.5 -2.32953,-7.898 4.91991,-25.4578 -3.95313,-26.8125 -10.7954,0.5621 -23.07415,2.7138 -18.3909,-12.2034 2.36093,-7.9486 -4.9605,-25.7603 4.29688,-26.8125 10.49345,0.3757 23.17095,2.8669 18.3909,-12.0312 -2.53402,-7.4993 6.0951,-26.1404 -6.875,-23.2034 -10.27675,0.2403 -24.78135,-3.8122 -19.59375,11.5159 4.54817,14.2752 -13.7973,6.2469 -21.8284,8.25 -14.9732,4.8442 -8.87315,-11.2481 -9.96875,-20.2813 l -33.6875,0 c 0.18535,-18.7654 0.50215,-37.6095 0.6875,-56.375 -1.53659,-10.7063 4.28538,-25.1278 -4.98438,-32.82837 l 0.1716,-311.78398 c -2.2391,-14.1306 5.52805,-26.57765 13.0625,-37.9841 26.2218,-33.34925 87.945,-44.58245 87.3125,-96.25 -0.48015,-39.11765 -44.8041,-55.737 -68.5795,-79.75 -11.28215,-11.39435 -24.93315,-16.5066 -39.53125,-17.3591 -1.46256,-0.0852 -3.15881,-0.044 -4.98437,0 z m -3.09375,31.625 c 8.129,0 14.78125,6.48065 14.78125,14.6091 0,8.129 -6.65225,14.78125 -14.78125,14.78125 -8.129,0 -14.78125,-6.65225 -14.78125,-14.78125 0,-8.129 6.65225,-14.6091 14.78125,-14.6091 z"
         inkscape:connector-curvature="0" />
    </g>
  </g>
  <metadata
     id="metadata7">
    <rdf:RDF>
      <cc:Work>
        <dc:format>image/svg+xml</dc:format>
        <dc:type
           rdf:resource="http://purl.org/dc/dcmitype/StillImage" />
        <cc:license
           rdf:resource="http://creativecommons.org/publicdomain/zero/1.0/" />
        <dc:publisher>
          <cc:Agent
             rdf:about="http://openclipart.org/">
            <dc:title>Openclipart</dc:title>
          </cc:Agent>
        </dc:publisher>
        <dc:title></dc:title>
        <dc:date>2010-06-01T18:36:56</dc:date>
        <dc:description>A key.</dc:description>
        <dc:source>https://openclipart.org/detail/63961/key-by-laobc</dc:source>
        <dc:creator>
          <cc:Agent>
            <dc:title>laobc</dc:title>
          </cc:Agent>
        </dc:creator>
        <dc:subject>
          <rdf:Bag>
            <rdf:li>black and white</rdf:li>
            <rdf:li>door key</rdf:li>
            <rdf:li>key</rdf:li>
            <rdf:li>lock</rdf:li>
            <rdf:li>old key</rdf:li>
            <rdf:li>silhouette</rdf:li>
          </rdf:Bag>
        </dc:subject>
      </cc:Work>
      <cc:License
         rdf:about="http://creativecommons.org/publicdomain/zero/1.0/">
        <cc:permits
           rdf:resource="http://creativecommons.org/ns#Reproduction" />
        <cc:permits
           rdf:resource="http://creativecommons.org/ns#Distribution" />
        <cc:permits
           rdf:resource="http://creativecommons.org/ns#DerivativeWorks" />
      </cc:License>
    </rdf:RDF>
  </metadata>
</svg>
